{
  "asset": {
    "version": "2.0",
    "generator": "vulkan-renderer authored fixture"
  },
  "scene": 0,
  "scenes": [
    {
      "nodes": [
        0,
        2
      ]
    }
  ],
  "nodes": [
    {
      "translation": [
        0,
        1,
        0
      ],
      "children": [
        1
      ]
    },
    {
      "mesh": 0,
      "translation": [
        0,
        -1,
        0
      ]
    },
    {
      "mesh": 0,
      "translation": [
        5,
        0,
        0
      ],
      "rotation": [
        0,
        0.24740395925452294,
        0,
        0.9689124217106447
      ],
      "scale": [
        0.7,
        1.2,
        0.8
      ]
    }
  ],
  "meshes": [
    {
      "primitives": [
        {
          "attributes": {
            "POSITION": 0,
            "NORMAL": 1,
            "TEXCOORD_0": 2
          },
          "indices": 3,
          "material": 0
        }
      ]
    }
  ],
  "buffers": [
    {
      "uri": "SampleScene.bin",
      "byteLength": 840
    }
  ],
  "bufferViews": [
    {
      "buffer": 0,
      "byteOffset": 0,
      "byteLength": 288
    },
    {
      "buffer": 0,
      "byteOffset": 288,
      "byteLength": 288
    },
    {
      "buffer": 0,
      "byteOffset": 576,
      "byteLength": 192
    },
    {
      "buffer": 0,
      "byteOffset": 768,
      "byteLength": 72
    }
  ],
  "accessors": [
    {
      "bufferView": 0,
      "componentType": 5126,
      "count": 24,
      "type": "VEC3",
      "min": [
        -0.5,
        -0.5,
        -0.5
      ],
      "max": [
        0.5,
        0.5,
        0.5
      ]
    },
    {
      "bufferView": 1,
      "componentType": 5126,
      "count": 24,
      "type": "VEC3"
    },
    {
      "bufferView": 2,
      "componentType": 5126,
      "count": 24,
      "type": "VEC2"
    },
    {
      "bufferView": 3,
      "componentType": 5123,
      "count": 36,
      "type": "SCALAR"
    }
  ],
  "images": [
    {
      "uri": "checker.png"
    }
  ],
  "samplers": [
    {
      "magFilter": 9728,
      "minFilter": 9984,
      "wrapS": 33071,
      "wrapT": 33648
    }
  ],
  "textures": [
    {
      "source": 0,
      "sampler": 0
    }
  ],
  "materials": [
    {
      "pbrMetallicRoughness": {
        "baseColorFactor": [
          1,
          1,
          1,
          1
        ],
        "baseColorTexture": {
          "index": 0
        },
        "metallicFactor": 0,
        "roughnessFactor": 1
      },
      "doubleSided": true
    }
  ]
}
